<svg xmlns="http://www.w3.org/2000/svg" xmlns:xlink="http://www.w3.org/1999/xlink" width="62" height="62" viewBox="0 0 62 62">
  <defs>
    <clipPath id="clip-path">
      <rect id="Rectangle_8800" data-name="Rectangle 8800" width="62" height="62" transform="translate(1594 2296.5)" fill="#1b1b1b" stroke="#707070" stroke-width="1"/>
    </clipPath>
  </defs>
  <g id="Mask_Group_1642" data-name="Mask Group 1642" transform="translate(-1594 -2296.5)" clip-path="url(#clip-path)">
    <g id="select" transform="translate(1594 2295.219)">
      <path id="Path_19256" data-name="Path 19256" d="M48.246,61.98A21.01,21.01,0,0,1,39.468,59.6c-3.735-1.772-5.536-1.71-6.727-1.653a3.457,3.457,0,0,1-2.945-.912c-.346-.346-1.919-2.232,1.173-5.324a7.762,7.762,0,0,1,5.494-2.012l-10.71-10.71a3.754,3.754,0,0,1,.008-5.319,3.76,3.76,0,0,1,2.661-1.108h.005a3.722,3.722,0,0,1,2.655,1.1l4.448,4.451a3.694,3.694,0,0,1,.705-.971,3.751,3.751,0,0,1,3.777-.935,3.766,3.766,0,0,1,6-1.6,3.7,3.7,0,0,1,.708-.982,3.767,3.767,0,0,1,5.321-.008l6.975,6.975c4.378,4.376,3.89,10.72-1.191,15.8l-.034.034L54.91,59.315a9.092,9.092,0,0,1-6.665,2.666Zm-14.8-6.636a16.132,16.132,0,0,1,7.135,1.917c7.711,3.66,10.836,1.883,12.521.222l2.909-2.909a.244.244,0,0,1,.026-.026c3.079-3.115,5.19-8.1,1.186-12.107l-7-7a1.186,1.186,0,0,0-1.679,1.674l0,0,1.744,1.744A1.292,1.292,0,0,1,48.463,40.7l-4.068-4.068A1.185,1.185,0,0,0,42.72,38.3l2.906,2.906A1.292,1.292,0,0,1,43.8,43.038L39.732,38.97a1.187,1.187,0,0,0-2.017.847,1.162,1.162,0,0,0,.341.827l2.906,2.906a1.292,1.292,0,1,1-1.826,1.829L29.254,35.5a1.167,1.167,0,0,0-.829-.346,1.2,1.2,0,0,0-1.188,1.188,1.165,1.165,0,0,0,.344.829L40.948,50.54a1.286,1.286,0,0,1,.2,1.571,1.3,1.3,0,0,1-1.475.581c-.049-.013-4.676-1.341-6.876.855-1,1-1.147,1.617-1.121,1.754.108.075.134.1.966.07.24-.016.506-.026.8-.026Zm14.2-20.8h.026Z" fill="#1b1b1b"/>
      <path id="Path_19257" data-name="Path 19257" d="M47.789,20.665H9.041a9.041,9.041,0,0,1,0-18.082H47.789a9.041,9.041,0,0,1,0,18.082ZM9.041,5.166a6.458,6.458,0,0,0,0,12.916H47.789a6.458,6.458,0,0,0,0-12.916Z" fill="#1b1b1b"/>
      <path id="Path_19258" data-name="Path 19258" d="M11.624,15.5A3.875,3.875,0,1,1,15.5,11.624,3.879,3.879,0,0,1,11.624,15.5Zm0-5.166a1.292,1.292,0,1,0,1.292,1.292A1.294,1.294,0,0,0,11.624,10.333Z" fill="#1b1b1b"/>
      <path id="Path_19259" data-name="Path 19259" d="M24.54,15.5a3.875,3.875,0,1,1,3.875-3.875A3.879,3.879,0,0,1,24.54,15.5Zm0-5.166a1.292,1.292,0,1,0,1.292,1.292A1.294,1.294,0,0,0,24.54,10.333Z" fill="#1b1b1b"/>
      <path id="Path_19260" data-name="Path 19260" d="M19.374,36.164H9.041a9.041,9.041,0,0,1,0-18.082H47.789a9.051,9.051,0,0,1,9.041,9.041,1.292,1.292,0,0,1-2.583,0,6.465,6.465,0,0,0-6.458-6.458H9.041a6.458,6.458,0,0,0,0,12.916H19.374a1.292,1.292,0,1,1,0,2.583Z" fill="#1b1b1b"/>
      <path id="Path_19261" data-name="Path 19261" d="M11.624,31A3.875,3.875,0,1,1,15.5,27.123,3.879,3.879,0,0,1,11.624,31Zm0-5.166a1.292,1.292,0,1,0,1.292,1.292A1.294,1.294,0,0,0,11.624,25.832Z" fill="#1b1b1b"/>
      <path id="Path_19262" data-name="Path 19262" d="M24.54,31a3.875,3.875,0,1,1,3.875-3.875A3.879,3.879,0,0,1,24.54,31Zm0-5.166a1.292,1.292,0,1,0,1.292,1.292A1.294,1.294,0,0,0,24.54,25.832Z" fill="#1b1b1b"/>
      <path id="Path_19263" data-name="Path 19263" d="M24.54,51.663H9.041a9.041,9.041,0,0,1,0-18.082H19.374a1.292,1.292,0,1,1,0,2.583H9.041a6.458,6.458,0,1,0,0,12.916h15.5a1.292,1.292,0,0,1,0,2.583Z" fill="#1b1b1b"/>
      <path id="Path_19264" data-name="Path 19264" d="M11.624,46.5A3.875,3.875,0,1,1,15.5,42.622,3.879,3.879,0,0,1,11.624,46.5Zm0-5.166a1.292,1.292,0,1,0,1.292,1.292A1.294,1.294,0,0,0,11.624,41.331Z" fill="#1b1b1b"/>
    </g>
  </g>
</svg>
