<svg xmlns="http://www.w3.org/2000/svg" xmlns:xlink="http://www.w3.org/1999/xlink" width="60" height="60" viewBox="0 0 60 60">
  <defs>
    <clipPath id="clip-path">
      <rect id="Rectangle_8816" data-name="Rectangle 8816" width="60" height="60" transform="translate(1575 4077.5)" fill="#1b1b1b" stroke="#707070" stroke-width="1"/>
    </clipPath>
  </defs>
  <g id="Mask_Group_1653" data-name="Mask Group 1653" transform="translate(-1575 -4077.5)" clip-path="url(#clip-path)">
    <g id="smartphone_1_" data-name="smartphone (1)" transform="translate(1573 4075.5)">
      <circle id="Ellipse_1103" data-name="Ellipse 1103" cx="1" cy="1" r="1" transform="translate(21 6)" fill="#1b1b1b"/>
      <path id="Path_19310" data-name="Path 19310" d="M27,8h7a1,1,0,0,0,0-2H27a1,1,0,0,0,0,2Z" fill="#1b1b1b"/>
      <path id="Path_19311" data-name="Path 19311" d="M45,62h7a1,1,0,0,0,1-1V37a5.017,5.017,0,0,0-.588-2.353L45,20.75V7a5.006,5.006,0,0,0-5-5H16a5.006,5.006,0,0,0-5,5V57a5.006,5.006,0,0,0,5,5H45Zm6-25V60H45a9.011,9.011,0,0,1-9-8.811,1,1,0,0,0-.153-.749l-6.487-9.6a3,3,0,0,1,4.972-3.359l.018.026,5.838,8.079A1,1,0,0,0,41,46h3a1,1,0,0,0,1-1V25l5.647,10.588A3.012,3.012,0,0,1,51,37ZM43,21V44H41.511l-5.53-7.653A5,5,0,0,0,27.7,41.959L33.137,50H13V12H43ZM16,4H40a3,3,0,0,1,3,3v3H13V7A3,3,0,0,1,16,4Zm0,56a3,3,0,0,1-3-3V52H34.048a11,11,0,0,0,4.639,8Z" fill="#1b1b1b"/>
      <path id="Path_19312" data-name="Path 19312" d="M28,53a3,3,0,1,0,3,3A3,3,0,0,0,28,53Zm0,4a1,1,0,1,1,1-1A1,1,0,0,1,28,57Z" fill="#1b1b1b"/>
      <path id="Path_19313" data-name="Path 19313" d="M16,24H40a1,1,0,0,0,1-1V15a1,1,0,0,0-1-1H16a1,1,0,0,0-1,1v8A1,1,0,0,0,16,24Zm1-8H39v6H17Z" fill="#1b1b1b"/>
      <path id="Path_19314" data-name="Path 19314" d="M28,18H20a1,1,0,0,0,0,2h8a1,1,0,0,0,0-2Z" fill="#1b1b1b"/>
      <path id="Path_19315" data-name="Path 19315" d="M16,28H30a1,1,0,0,0,0-2H16a1,1,0,0,0,0,2Z" fill="#1b1b1b"/>
      <path id="Path_19316" data-name="Path 19316" d="M30,30H24a1,1,0,0,0,0,2h6a1,1,0,0,0,0-2Z" fill="#1b1b1b"/>
      <path id="Path_19317" data-name="Path 19317" d="M16,36h6a1,1,0,0,0,0-2H16a1,1,0,0,0,0,2Z" fill="#1b1b1b"/>
      <path id="Path_19318" data-name="Path 19318" d="M16,40h6a1,1,0,0,0,0-2H16a1,1,0,0,0,0,2Z" fill="#1b1b1b"/>
      <circle id="Ellipse_1104" data-name="Ellipse 1104" cx="1" cy="1" r="1" transform="translate(15 46)" fill="#1b1b1b"/>
      <circle id="Ellipse_1105" data-name="Ellipse 1105" cx="1" cy="1" r="1" transform="translate(19 46)" fill="#1b1b1b"/>
      <circle id="Ellipse_1106" data-name="Ellipse 1106" cx="1" cy="1" r="1" transform="translate(23 46)" fill="#1b1b1b"/>
      <path id="Path_19319" data-name="Path 19319" d="M16,44h8a1,1,0,0,0,0-2H16a1,1,0,0,0,0,2Z" fill="#1b1b1b"/>
      <path id="Path_19320" data-name="Path 19320" d="M40,26H34a1,1,0,0,0-1,1v4a1,1,0,0,0,1,1h6a1,1,0,0,0,1-1V27A1,1,0,0,0,40,26Zm-1,4H35V28h4Z" fill="#1b1b1b"/>
      <path id="Path_19321" data-name="Path 19321" d="M16,32h4a1,1,0,0,0,0-2H16a1,1,0,0,0,0,2Z" fill="#1b1b1b"/>
    </g>
  </g>
</svg>
