<svg xmlns="http://www.w3.org/2000/svg" xmlns:xlink="http://www.w3.org/1999/xlink" width="60" height="60" viewBox="0 0 60 60">
  <defs>
    <clipPath id="clip-path">
      <rect id="Rectangle_8812" data-name="Rectangle 8812" width="60" height="60" transform="translate(1575 3529.5)" fill="#1b1b1b" stroke="#707070" stroke-width="1"/>
    </clipPath>
  </defs>
  <g id="Mask_Group_1651" data-name="Mask Group 1651" transform="translate(-1575 -3529.5)" clip-path="url(#clip-path)">
    <g id="box" transform="translate(1573.907 3528.429)">
      <path id="Path_19295" data-name="Path 19295" d="M57.439,27.206H54.414A2.98,2.98,0,0,0,51.57,25.02H48.34v-7.9a.833.833,0,0,0-.406-.736L25.151,3.227a.841.841,0,0,0-.846,0L1.516,16.386a.848.848,0,0,0-.423.736V43.441a.85.85,0,0,0,.425.736L24.31,57.336a.85.85,0,0,0,.425.114.894.894,0,0,0,.437-.114l11.993-6.918v5a3.6,3.6,0,0,0,3.63,3.609H57.439a3.62,3.62,0,0,0,3.654-3.609V30.872a3.668,3.668,0,0,0-3.654-3.666ZM51.6,26.721a1.234,1.234,0,0,1,1.234,1.234v.082A1.234,1.234,0,0,1,51.6,29.271H46.659a1.234,1.234,0,0,1-1.234-1.234v-.082a1.234,1.234,0,0,1,1.234-1.234ZM24.735,4.945l9.471,5.468L13.116,22.59l-9.47-5.468Zm-.808,50.181L2.794,42.95V18.593L23.927,30.771ZM24.735,29.3l-9.919-5.727,21.09-12.176,9.92,5.727Zm12.431,1.574V48.455L25.628,55.127V30.771L46.64,18.593V25.02h.026a2.98,2.98,0,0,0-2.844,2.186H40.8A3.648,3.648,0,0,0,37.166,30.872ZM59.393,55.419a1.918,1.918,0,0,1-1.954,1.909H40.8a1.9,1.9,0,0,1-1.93-1.909V30.872a1.946,1.946,0,0,1,1.93-1.965h3.059a2.908,2.908,0,0,0,2.811,2.065h4.9a2.908,2.908,0,0,0,2.811-2.065h3.059a1.966,1.966,0,0,1,1.954,1.965Z" fill="#1b1b1b"/>
      <path id="Path_19296" data-name="Path 19296" d="M41.775,39.474h.89a.85.85,0,0,0,0-1.7h-.034V35.466h2.345a.818.818,0,0,0,.808.574.853.853,0,0,0,.855-.848v-.572a.861.861,0,0,0-.859-.854H41.775a.848.848,0,0,0-.844.854v4.005a.844.844,0,0,0,.844.849Z" fill="#1b1b1b"/>
      <path id="Path_19297" data-name="Path 19297" d="M41.781,47.247h4.008a.85.85,0,0,0,.85-.85V42.389a.85.85,0,0,0-.85-.85H41.781a.85.85,0,0,0-.85.85V46.4a.85.85,0,0,0,.85.85Zm.85-4.008h2.308v2.308H42.632Z" fill="#1b1b1b"/>
      <path id="Path_19298" data-name="Path 19298" d="M42.665,53.32h-.034V51.012h2.3a.855.855,0,1,0,1.709,0v-.819a.887.887,0,0,0-.859-.883H41.775a.873.873,0,0,0-.844.883V54.2a.82.82,0,0,0,.844.821h.89a.85.85,0,1,0,0-1.7Z" fill="#1b1b1b"/>
      <path id="Path_19299" data-name="Path 19299" d="M47.738,34.809l-2.49,2.49-.757-.758a.85.85,0,1,0-1.2,1.2L44.647,39.1a.85.85,0,0,0,1.2,0l3.091-3.091a.85.85,0,0,0-1.2-1.2Z" fill="#1b1b1b"/>
      <path id="Path_19300" data-name="Path 19300" d="M47.738,50.507,45.248,53l-.757-.758a.85.85,0,0,0-1.2,1.2L44.647,54.8a.85.85,0,0,0,1.2,0l3.091-3.091a.85.85,0,0,0-1.2-1.2Z" fill="#1b1b1b"/>
      <path id="Path_19301" data-name="Path 19301" d="M56.46,35.83H51.12a.85.85,0,0,0,0,1.7h5.34a.85.85,0,1,0,0-1.7Z" fill="#1b1b1b"/>
      <path id="Path_19302" data-name="Path 19302" d="M56.46,43.6H51.12a.85.85,0,0,0,0,1.7h5.34a.85.85,0,1,0,0-1.7Z" fill="#1b1b1b"/>
      <path id="Path_19303" data-name="Path 19303" d="M56.46,51.377H51.12a.85.85,0,0,0,0,1.7h5.34a.85.85,0,1,0,0-1.7Z" fill="#1b1b1b"/>
    </g>
  </g>
</svg>
