<svg xmlns="http://www.w3.org/2000/svg" xmlns:xlink="http://www.w3.org/1999/xlink" width="60" height="60" viewBox="0 0 60 60">
  <defs>
    <clipPath id="clip-path">
      <rect id="Rectangle_8813" data-name="Rectangle 8813" width="60" height="60" transform="translate(1575 3803.5)" fill="#1b1b1b" stroke="#707070" stroke-width="1"/>
    </clipPath>
  </defs>
  <g id="Mask_Group_1652" data-name="Mask Group 1652" transform="translate(-1575 -3803.5)" clip-path="url(#clip-path)">
    <g id="delivery_3_" data-name="delivery (3)" transform="translate(1575 3803.5)">
      <g id="Group_27955" data-name="Group 27955">
        <path id="Path_19304" data-name="Path 19304" d="M57.052,2.742H37.332A2.951,2.951,0,0,0,34.384,5.69v18.9a2.951,2.951,0,0,0,2.948,2.948h19.72A2.951,2.951,0,0,0,60,24.589V5.69a2.951,2.951,0,0,0-2.948-2.948ZM50.179,5.086V9.059l-.373-.213a1.171,1.171,0,0,0-1.2.023l-1.31.817-1.214-.8a1.182,1.182,0,0,0-1.226-.04l-.378.215V5.086Zm7.477,19.5a.605.605,0,0,1-.6.6H37.332a.605.605,0,0,1-.6-.6V5.69a.605.605,0,0,1,.6-.6h4.8v5.993A1.183,1.183,0,0,0,43.886,12.1l1.5-.858,1.241.818a1.182,1.182,0,0,0,1.265.016l1.354-.844,1.519.868a1.183,1.183,0,0,0,1.753-1.018V5.086h4.529a.605.605,0,0,1,.6.6Z" fill="#1b1b1b"/>
        <path id="Path_19305" data-name="Path 19305" d="M45.511,19.828H41.1a1.172,1.172,0,0,0,0,2.344h4.413a1.172,1.172,0,0,0,0-2.344Z" fill="#1b1b1b"/>
        <path id="Path_19306" data-name="Path 19306" d="M42.85,31.272H9.824a7.48,7.48,0,1,1,0-14.96H24.885a1.172,1.172,0,1,0,0-2.344H9.824a9.824,9.824,0,1,0,0,19.648H42.85a4.576,4.576,0,0,1,0,9.151H33.687L34.9,41.551a1.172,1.172,0,0,0-1.657-1.657L30.029,43.11a1.184,1.184,0,0,0,0,1.657l3.216,3.216A1.172,1.172,0,1,0,34.9,46.326L33.687,45.11H42.85a6.919,6.919,0,0,0,0-13.838Z" fill="#1b1b1b"/>
        <path id="Path_19307" data-name="Path 19307" d="M18.823,36.474a8.069,8.069,0,0,0-8.06,8.06,7.965,7.965,0,0,0,1.511,4.7l5.608,7.56a1.183,1.183,0,0,0,1.882,0l5.608-7.56a7.96,7.96,0,0,0,1.511-4.7A8.069,8.069,0,0,0,18.823,36.474Zm4.653,11.378-.025.037-4.628,6.238-4.628-6.238a6,6,0,0,1-1.089-3.355,5.717,5.717,0,1,1,10.37,3.318Z" fill="#1b1b1b"/>
        <path id="Path_19308" data-name="Path 19308" d="M18.823,40.865a3.669,3.669,0,1,0,3.669,3.669A3.673,3.673,0,0,0,18.823,40.865Zm0,4.994a1.325,1.325,0,1,1,1.325-1.325A1.327,1.327,0,0,1,18.823,45.859Z" fill="#1b1b1b"/>
        <path id="Path_19309" data-name="Path 19309" d="M29.13,15.587a1.171,1.171,0,1,0,.634-1.53,1.181,1.181,0,0,0-.634,1.53Z" fill="#1b1b1b"/>
      </g>
    </g>
  </g>
</svg>
