<svg xmlns="http://www.w3.org/2000/svg" xmlns:xlink="http://www.w3.org/1999/xlink" width="60" height="60" viewBox="0 0 60 60">
  <defs>
    <clipPath id="clip-path">
      <rect id="Rectangle_8805" data-name="Rectangle 8805" width="60" height="60" transform="translate(1569 1342)" fill="#322473" stroke="#707070" stroke-width="1"/>
    </clipPath>
  </defs>
  <g id="Mask_Group_1646" data-name="Mask Group 1646" transform="translate(-1569 -1342)" clip-path="url(#clip-path)">
    <g id="parcel" transform="translate(1569 1347.332)">
      <path id="Path_19273" data-name="Path 19273" d="M56.484,1.934H16.172a3.519,3.519,0,0,0-3.516,3.516v5.608L2,.4A1.172,1.172,0,0,0,.343,2.059l13.8,13.8L6.854,23.156,2,18.3A1.172,1.172,0,0,0,.343,19.96L10.085,29.7v1.055A12.1,12.1,0,0,0,12.656,38.2v7.564a3.519,3.519,0,0,0,3.516,3.516H56.484A3.519,3.519,0,0,0,60,45.762V19.042a1.172,1.172,0,1,0-2.344,0v26.72a1.173,1.173,0,0,1-1.172,1.172H32.019c.049-.043.1-.088.144-.135a3.36,3.36,0,0,0,.695-1.01A3.385,3.385,0,0,0,37.4,41.25a3.385,3.385,0,0,0,1.009-5.482l-4.036-4.036a3.728,3.728,0,0,0,3.283-1.514l.038-.053a3.806,3.806,0,0,0-.791-5.288c-1.05-.78-2.471-1.841-4.226-3.154a14.418,14.418,0,0,0-8.583-2.855h-.016l-3.608,0L15,13.4V5.449a1.173,1.173,0,0,1,1.172-1.172H28.406v11.95a1.172,1.172,0,0,0,2,.829l2.547-2.547L35.5,17.056a1.171,1.171,0,0,0,1.657,0L39.7,14.51l2.546,2.546a1.172,1.172,0,0,0,2-.829V4.277H56.484a1.173,1.173,0,0,1,1.172,1.172V9.667a1.172,1.172,0,0,0,2.344,0V5.449a3.519,3.519,0,0,0-3.516-3.516ZM15,45.762v-5.1l3.829,3.829h0l2.439,2.439h-5.1A1.173,1.173,0,0,1,15,45.762Zm9.081-24.55h.013A12.059,12.059,0,0,1,31.272,23.6c1.757,1.314,3.181,2.377,4.232,3.159a1.455,1.455,0,0,1,.3,2.022l-.038.053a1.383,1.383,0,0,1-1.863.345l-4.5-2.9a1.358,1.358,0,0,0-1.7,2.1l9.044,9.044a1.039,1.039,0,0,1-1.379,1.551l-4.539-4.539a1.167,1.167,0,0,0-.1-.087l-.464-.464a1.172,1.172,0,0,0-1.658,1.657l5.009,5.009c.052.052.106.1.16.149l1.322,1.322a1.04,1.04,0,1,1-1.471,1.47l-1.323-1.323c-.048-.054-.1-.108-.149-.16L27.711,37.56a1.25,1.25,0,0,0-.1-.087l-.464-.464a1.172,1.172,0,0,0-1.657,1.657l5.095,5.095a1.04,1.04,0,0,1-1.551,1.379l-1.479-1.479c-.048-.055-.1-.108-.149-.16l-2.818-2.818a1.25,1.25,0,0,0-.1-.087l-.464-.464A1.172,1.172,0,0,0,22.37,41.79L25.83,45.25a1.04,1.04,0,0,1-1.551,1.379l-6.138-6.138h0l-2.882-2.881a9.733,9.733,0,0,1-2.831-6.849l0-1.7,7.841-7.841ZM10.935,27.236,8.511,24.813,15.8,17.52l2.424,2.424ZM41.906,13.4l-1.375-1.375a1.172,1.172,0,0,0-1.657,0l-2.547,2.547-2.547-2.547a1.171,1.171,0,0,0-1.657,0L30.75,13.4V4.277H41.906Zm0,0" fill="#322473"/>
      <path id="Path_19274" data-name="Path 19274" d="M52.5,35.116H45a1.172,1.172,0,0,0,0,2.344h7.5a1.172,1.172,0,0,0,0-2.344Zm0,0" fill="#322473"/>
      <path id="Path_19275" data-name="Path 19275" d="M52.5,39.949H47.422a1.172,1.172,0,0,0,0,2.344H52.5a1.172,1.172,0,0,0,0-2.344Zm0,0" fill="#322473"/>
      <path id="Path_19276" data-name="Path 19276" d="M42.735,39.949a1.172,1.172,0,1,0,.829.343A1.179,1.179,0,0,0,42.735,39.949Zm0,0" fill="#322473"/>
      <path id="Path_19277" data-name="Path 19277" d="M58.828,13.182a1.172,1.172,0,1,0,.829.343,1.181,1.181,0,0,0-.829-.343Zm0,0" fill="#322473"/>
    </g>
  </g>
</svg>
