<svg xmlns="http://www.w3.org/2000/svg" xmlns:xlink="http://www.w3.org/1999/xlink" width="62" height="62" viewBox="0 0 62 62">
  <defs>
    <clipPath id="clip-path">
      <rect id="Rectangle_8803" data-name="Rectangle 8803" width="62" height="62" transform="translate(274 2306.5)" fill="#1b1b1b" stroke="#707070" stroke-width="1"/>
    </clipPath>
  </defs>
  <g id="Mask_Group_1645" data-name="Mask Group 1645" transform="translate(-274 -2306.5)" clip-path="url(#clip-path)">
    <path id="delivery_2_" data-name="delivery (2)" d="M25.672,4.917H0V.073H25.672ZM20.828,9.76H0V14.6H20.828Zm-4.844,9.687H0v4.844H15.984ZM62,46.452H51.9a7.264,7.264,0,0,1-13.7,0h-15a7.264,7.264,0,0,1-13.7,0H7.266A7.274,7.274,0,0,1,0,39.186V29.135H4.844V39.186a2.425,2.425,0,0,0,2.422,2.422H9.5a7.264,7.264,0,0,1,13.7,0H37.781V7.326A2.425,2.425,0,0,0,35.359,4.9H30.516V.06h4.844a7.274,7.274,0,0,1,7.266,7.266v4.856h4.853a7.3,7.3,0,0,1,5.8,2.889l6.768,8.967A9.746,9.746,0,0,1,62,29.874ZM42.625,17.026v9.082H55.539l-6.128-8.119a2.434,2.434,0,0,0-1.933-.963Zm-23.855,27a2.422,2.422,0,1,0-2.422,2.422A2.424,2.424,0,0,0,18.77,44.03Zm28.7,0a2.422,2.422,0,1,0-2.422,2.422A2.424,2.424,0,0,0,47.469,44.03Zm9.687-2.422V30.952H42.625v6.229A7.262,7.262,0,0,1,51.9,41.608Zm0,0" transform="translate(274 2311.822)" fill="#1b1b1b"/>
  </g>
</svg>
