<svg xmlns="http://www.w3.org/2000/svg" xmlns:xlink="http://www.w3.org/1999/xlink" width="60" height="60" viewBox="0 0 60 60">
  <defs>
    <clipPath id="clip-path">
      <rect id="Rectangle_8811" data-name="Rectangle 8811" width="60" height="60" transform="translate(1575 3234.5)" fill="#1b1b1b" stroke="#707070" stroke-width="1"/>
    </clipPath>
  </defs>
  <g id="Mask_Group_1649" data-name="Mask Group 1649" transform="translate(-1575 -3234.5)" clip-path="url(#clip-path)">
    <g id="delivery-man" transform="translate(1575 3234.5)">
      <g id="Group_27934" data-name="Group 27934">
        <path id="Path_19285" data-name="Path 19285" d="M30,60h0a1.172,1.172,0,1,1,1.174-1.172A1.172,1.172,0,0,1,30,60Z" fill="#1b1b1b"/>
      </g>
      <path id="Path_19286" data-name="Path 19286" d="M48.523,43.271V38.6c0-.006,0-.013,0-.019a8.482,8.482,0,0,0-3.739-7.352,23.05,23.05,0,0,0-7.125-2.78c-.711-.192-1.394-.376-2.051-.572V25.4a10.043,10.043,0,0,0,4.434-8.329V15.811a3.681,3.681,0,0,0,.734-5.163v-4.7A5.955,5.955,0,0,0,34.828,0H25.172a5.955,5.955,0,0,0-5.948,5.949v4.7a3.682,3.682,0,0,0,.734,5.163v1.255a10.042,10.042,0,0,0,4.434,8.328v2.481c-.657.2-1.34.38-2.051.572a23.05,23.05,0,0,0-7.125,2.78,8.482,8.482,0,0,0-3.739,7.352c0,.006,0,.013,0,.019v4.672a3.039,3.039,0,0,0-.884,2.144V48.75A3.052,3.052,0,0,0,13.642,51.8h2.92c.154,0,.306-.008.456-.022v5.461A2.764,2.764,0,0,0,19.777,60h4.959a1.172,1.172,0,0,0,0-2.344H19.777a.423.423,0,0,1-.416-.419V50.875a4.711,4.711,0,0,0,0-7.585V39.764a.421.421,0,0,1,.416-.416h5.468v7.133a1.172,1.172,0,0,0,1.827.972L30,45.479l2.926,1.973a1.172,1.172,0,0,0,1.827-.971V39.348h5.468a.423.423,0,0,1,.419.416v3.523a4.711,4.711,0,0,0,0,7.59v6.36a.425.425,0,0,1-.419.419H35.263a1.172,1.172,0,1,0,0,2.344h4.959a2.766,2.766,0,0,0,2.763-2.763V51.776c.149.014.3.022.452.022h2.92a3.052,3.052,0,0,0,3.049-3.049V45.415a3.038,3.038,0,0,0-.883-2.144ZM21.567,5.949a3.609,3.609,0,0,1,3.6-3.6h9.656a3.609,3.609,0,0,1,3.6,3.6V8.574a14.773,14.773,0,0,0-16.866,0Zm-.343,7.868a1.35,1.35,0,0,1,0-1.907h0a12.411,12.411,0,0,1,17.552,0h0a1.347,1.347,0,1,1-1.9,1.907,9.714,9.714,0,0,0-13.74,0A1.355,1.355,0,0,1,21.224,13.816Zm1.077,3.25v-.519a3.685,3.685,0,0,0,2.487-1.074,7.37,7.37,0,0,1,10.428,0A3.679,3.679,0,0,0,37.7,16.547v.52a7.7,7.7,0,1,1-15.4,0Zm10.963,9.5v2.172a3.264,3.264,0,0,1-6.528,0V26.563a10,10,0,0,0,6.528,0ZM13.642,49.455a.706.706,0,0,1-.7-.7V45.415a.706.706,0,0,1,.7-.7h2.92a2.372,2.372,0,1,1,0,4.745ZM32.41,44.277l-1.754-1.183a1.171,1.171,0,0,0-1.31,0l-1.757,1.184v-4.93H32.41ZM40.222,37H19.777a2.763,2.763,0,0,0-2.76,2.76v2.624c-.15-.014-.3-.022-.456-.022H13.821V38.608a6.205,6.205,0,0,1,2.725-5.451,21.42,21.42,0,0,1,6.4-2.447c.546-.147,1.1-.3,1.652-.456a5.607,5.607,0,0,0,10.794,0c.55.158,1.106.309,1.652.456a21.415,21.415,0,0,1,6.4,2.447,6.2,6.2,0,0,1,2.725,5.451v3.757H43.438c-.153,0-.3.008-.452.022V39.764A2.764,2.764,0,0,0,40.222,37Zm6.84,11.745a.706.706,0,0,1-.7.7h-2.92a2.353,2.353,0,0,1-1.054-.25c-.028-.016-.057-.03-.086-.043a2.372,2.372,0,0,1,1.141-4.452h2.92a.706.706,0,0,1,.7.7V48.75Z" fill="#1b1b1b"/>
    </g>
  </g>
</svg>
