<svg xmlns="http://www.w3.org/2000/svg" width="110.661" height="75.441" viewBox="0 0 110.661 75.441">
  <path id="delivery-truck" d="M90.471,673.671a10.218,10.218,0,0,0-7.211,2.974,10.012,10.012,0,0,0,0,14.331,10.258,10.258,0,0,0,7.211,2.974,10.14,10.14,0,0,0,0-20.28Zm0,15.773a5.634,5.634,0,1,1,0-11.267,5.634,5.634,0,0,1,0,11.267Zm2.614-49.55a2.188,2.188,0,0,0-1.51-.586H80.015a2.26,2.26,0,0,0-2.253,2.253v18.477a2.26,2.26,0,0,0,2.253,2.253H98.358a2.26,2.26,0,0,0,2.253-2.253V647.668A2.255,2.255,0,0,0,99.867,646ZM96.1,657.785H82.269V643.792H90.7l5.408,4.867ZM35.445,673.671a10.218,10.218,0,0,0-7.211,2.974,10.012,10.012,0,0,0,0,14.331,10.258,10.258,0,0,0,7.211,2.974,10.14,10.14,0,0,0,0-20.28Zm0,15.773a5.634,5.634,0,1,1,0-11.267,5.634,5.634,0,0,1,0,11.267Zm-15.03-13H15.886v-5.994a2.253,2.253,0,0,0-4.507,0V678.7a2.26,2.26,0,0,0,2.253,2.253h6.782a2.253,2.253,0,0,0,0-4.507Zm11.424-12.28a2.26,2.26,0,0,0-2.253-2.253H2.253a2.253,2.253,0,1,0,0,4.507H29.586A2.245,2.245,0,0,0,31.839,664.162ZM6.828,656.028l27.333.158a2.275,2.275,0,0,0,2.276-2.231,2.232,2.232,0,0,0-2.231-2.276l-27.333-.158H6.85a2.253,2.253,0,0,0-.023,4.507Zm4.6-10.23H38.757a2.253,2.253,0,0,0,0-4.507H11.424a2.253,2.253,0,0,0,0,4.507Zm98.4-3.042h0L93.693,629.394a2.22,2.22,0,0,0-1.442-.518H73.278v-8.112a2.26,2.26,0,0,0-2.253-2.253H13.633a2.26,2.26,0,0,0-2.253,2.253v16.494a2.253,2.253,0,1,0,4.507,0V623.017H68.794v53.426H50.317a2.253,2.253,0,0,0,0,4.507H77.83a2.253,2.253,0,0,0,0-4.507H73.3V633.382H91.462l14.692,12.168L106,676.4h-2.343a2.253,2.253,0,1,0,0,4.507h4.574a2.241,2.241,0,0,0,2.253-2.231l.18-34.161A2.38,2.38,0,0,0,109.827,642.756Z" transform="translate(0 -618.51)" fill="#fff"/>
</svg>
